<?xml version="1.0" standalone="no"?>
<!DOCTYPE svg PUBLIC "-//W3C//DTD SVG 20010904//EN"
 "http://www.w3.org/TR/2001/REC-SVG-20010904/DTD/svg10.dtd">
<svg version="1.0" xmlns="http://www.w3.org/2000/svg"
 width="150.000000pt" height="150.000000pt" viewBox="0 0 150.000000 150.000000"
 preserveAspectRatio="xMidYMid meet">
<metadata>
Created by potrace 1.14, written by Peter Selinger 2001-2017
</metadata>
<g transform="translate(0.000000,150.000000) scale(0.100000,-0.100000)"
fill="#000000" stroke="none">
<path d="M580 1419 c-224 -57 -407 -217 -489 -426 -11 -29 -23 -63 -25 -75 -3
-13 -9 -45 -15 -73 -13 -66 -6 -215 14 -290 56 -209 197 -378 389 -465 99 -45
180 -62 296 -63 243 0 452 111 589 313 148 218 157 520 24 750 -59 102 -181
217 -283 268 -164 82 -335 103 -500 61z m296 -23 c144 -30 254 -88 352 -186
135 -134 203 -306 197 -497 -19 -544 -627 -844 -1070 -528 -124 88 -222 232
-262 385 -23 86 -22 243 1 330 93 346 443 568 782 496z"/>
<path d="M1092 1224 c-46 -32 -70 -147 -37 -174 38 -32 95 46 95 128 0 34 -14
62 -30 62 -3 0 -16 -7 -28 -16z"/>
<path d="M731 1173 c-44 -36 -36 -154 12 -169 52 -16 77 120 31 166 -20 20
-21 20 -43 3z"/>
<path d="M960 1013 c-25 -13 -42 -33 -60 -71 -26 -53 -26 -54 -38 -28 -24 54
-129 77 -190 41 -45 -27 -56 -57 -57 -146 0 -43 -1 -79 -2 -79 -1 0 -11 20
-22 44 -24 55 -67 81 -123 73 -52 -7 -87 -31 -105 -75 -18 -43 -16 -54 42
-235 40 -127 48 -144 78 -164 39 -27 86 -29 131 -8 29 14 36 14 62 0 30 -16
96 -19 128 -6 11 4 36 3 56 -2 85 -23 134 19 174 148 15 50 47 152 72 228 47
149 52 183 30 226 -31 59 -115 85 -176 54z m98 -108 c23 -29 26 -17 -53 -275
-49 -157 -76 -205 -113 -198 -13 3 -15 21 -14 117 1 100 6 127 38 230 20 64
43 124 52 134 23 25 67 22 90 -8z m-260 -42 c23 -31 15 -184 -14 -279 -26 -87
-32 -133 -20 -153 4 -6 1 -11 -8 -11 -18 0 -65 21 -68 29 -4 16 -6 370 -2 392
9 47 82 61 112 22z m-276 -99 c18 -17 85 -216 92 -273 7 -59 -57 -92 -102 -53
-21 17 -94 236 -94 280 0 52 65 81 104 46z"/>
<path d="M381 1011 c-23 -15 -21 -77 3 -114 37 -55 76 -46 76 18 0 56 -48 115
-79 96z"/>
<path d="M717 314 c-1 -1 -29 -4 -62 -7 -88 -9 -121 -16 -199 -44 -93 -33
-105 -46 -22 -23 94 27 127 31 251 34 136 4 245 -6 374 -35 76 -17 55 -3 -44
30 -67 22 -126 34 -196 39 -55 4 -101 7 -102 6z"/>
</g>
</svg>
